HIERARCHY
ROOT Hips
{
  OFFSET 5.80788e-005 67.184 3.4734
  CHANNELS 6 Xposition Yposition Zposition Zrotation Xrotation Yrotation
  JOINT Chest
  {
    OFFSET 0 8.7983 -4.7612
    CHANNELS 6 Xposition Yposition Zposition Zrotation Xrotation Yrotation
    JOINT Chest2
    {
      OFFSET 0 8.0291 0.4195
      CHANNELS 6 Xposition Yposition Zposition Zrotation Xrotation Yrotation
      JOINT Chest3
      {
        OFFSET 0 9.9351 -2.2114
        CHANNELS 6 Xposition Yposition Zposition Zrotation Xrotation Yrotation
        JOINT Neck
        {
          OFFSET 0 22.3885 -0.4656
          CHANNELS 6 Xposition Yposition Zposition Zrotation Xrotation Yrotation
          JOINT Head
          {
            OFFSET -0.0001 12.643 3.4389
            CHANNELS 6 Xposition Yposition Zposition Zrotation Xrotation Yrotation
            End Site
            {
              OFFSET 0.0001 17.6655 0.5274
            }
          }
        }
        JOINT LeftCollar
        {
          OFFSET 2.2603 21.606 7.4023
          CHANNELS 6 Xposition Yposition Zposition Zrotation Xrotation Yrotation
          JOINT LeftShoulder
          {
            OFFSET 13.5163 -1.1332 -5.0146
            CHANNELS 6 Xposition Yposition Zposition Zrotation Xrotation Yrotation
            JOINT LeftElbow
            {
              OFFSET -0.0995 -28.05 -0.2431
              CHANNELS 6 Xposition Yposition Zposition Zrotation Xrotation Yrotation
              JOINT LeftWrist
              {
                OFFSET 0.0679 -23.3996 -0.1402
                CHANNELS 6 Xposition Yposition Zposition Zrotation Xrotation Yrotation
                JOINT LeftFinger1
                {
                  OFFSET 0.7932 -9.069 2.5189
                  CHANNELS 6 Xposition Yposition Zposition Zrotation Xrotation Yrotation
                  JOINT LeftFinger11
                  {
                    OFFSET -0.8272 -3.3923 0.5977
                    CHANNELS 6 Xposition Yposition Zposition Zrotation Xrotation Yrotation
                    JOINT LeftFinger12
                    {
                      OFFSET -0.5649 -2.3158 0.4082
                      CHANNELS 6 Xposition Yposition Zposition Zrotation Xrotation Yrotation
                      End Site
                      {
                        OFFSET -0.4919 -1.6479 0.2673
                      }
                    }
                  }
                }
                JOINT LeftFinger2
                {
                  OFFSET 0.9159 -9.2044 0.2193
                  CHANNELS 6 Xposition Yposition Zposition Zrotation Xrotation Yrotation
                  JOINT LeftFinger21
                  {
                    OFFSET 0.0117 -4.1944 -0.0248
                    CHANNELS 6 Xposition Yposition Zposition Zrotation Xrotation Yrotation
                    JOINT LeftFinger22
                    {
                      OFFSET 0.0071 -2.3249 -0.0142
                      CHANNELS 6 Xposition Yposition Zposition Zrotation Xrotation Yrotation
                      End Site
                      {
                        OFFSET -0.1475 -2.0882 0.0028
                      }
                    }
                  }
                }
                JOINT LeftFinger3
                {
                  OFFSET 0.6113 -8.7231 -2.0637
                  CHANNELS 6 Xposition Yposition Zposition Zrotation Xrotation Yrotation
                  JOINT LeftFinger31
                  {
                    OFFSET -0.1927 -3.8059 -0.2383
                    CHANNELS 6 Xposition Yposition Zposition Zrotation Xrotation Yrotation
                    JOINT LeftFinger32
                    {
                      OFFSET -0.1091 -2.1688 -0.1362
                      CHANNELS 6 Xposition Yposition Zposition Zrotation Xrotation Yrotation
                      End Site
                      {
                        OFFSET -0.2358 -1.9176 -0.0906
                      }
                    }
                  }
                }
                JOINT LeftFinger4
                {
                  OFFSET -0.6151 -8.0947 -3.5641
                  CHANNELS 6 Xposition Yposition Zposition Zrotation Xrotation Yrotation
                  JOINT LeftFinger41
                  {
                    OFFSET -0.4882 -2.341 -0.6462
                    CHANNELS 6 Xposition Yposition Zposition Zrotation Xrotation Yrotation
                    JOINT LeftFinger42
                    {
                      OFFSET -0.3575 -1.7167 -0.4742
                      CHANNELS 6 Xposition Yposition Zposition Zrotation Xrotation Yrotation
                      End Site
                      {
                        OFFSET -0.4187 -1.5237 -0.3496
                      }
                    }
                  }
                }
                JOINT LeftFinger0
                {
                  OFFSET -1.42 -1.8761 1.4223
                  CHANNELS 6 Xposition Yposition Zposition Zrotation Xrotation Yrotation
                  JOINT LeftFinger01
                  {
                    OFFSET -1.1471 -3.4929 2.6334
                    CHANNELS 6 Xposition Yposition Zposition Zrotation Xrotation Yrotation
                    JOINT LeftFinger02
                    {
                      OFFSET -0.823 -2.3 1.6571
                      CHANNELS 6 Xposition Yposition Zposition Zrotation Xrotation Yrotation
                      End Site
                      {
                        OFFSET -0.5822 -1.6914 1.1582
                      }
                    }
                  }
                }
              }
            }
          }
        }
        JOINT RightCollar
        {
          OFFSET -2.2603 21.606 7.4023
          CHANNELS 6 Xposition Yposition Zposition Zrotation Xrotation Yrotation
          JOINT RightShoulder
          {
            OFFSET -13.5187 -1.1334 -5.0155
            CHANNELS 6 Xposition Yposition Zposition Zrotation Xrotation Yrotation
            JOINT RightElbow
            {
              OFFSET 0.0994 -28.0499 -0.2431
              CHANNELS 6 Xposition Yposition Zposition Zrotation Xrotation Yrotation
              JOINT RightWrist
              {
                OFFSET -0.0679 -23.3996 -0.1402
                CHANNELS 6 Xposition Yposition Zposition Zrotation Xrotation Yrotation
                JOINT RightFinger1
                {
                  OFFSET -0.7932 -9.0691 2.5189
                  CHANNELS 6 Xposition Yposition Zposition Zrotation Xrotation Yrotation
                  JOINT RightFinger11
                  {
                    OFFSET 0.8272 -3.3923 0.5977
                    CHANNELS 6 Xposition Yposition Zposition Zrotation Xrotation Yrotation
                    JOINT RightFinger12
                    {
                      OFFSET 0.565 -2.3158 0.4082
                      CHANNELS 6 Xposition Yposition Zposition Zrotation Xrotation Yrotation
                      End Site
                      {
                        OFFSET 0.4919 -1.6479 0.2673
                      }
                    }
                  }
                }
                JOINT RightFinger2
                {
                  OFFSET -0.916 -9.2044 0.2193
                  CHANNELS 6 Xposition Yposition Zposition Zrotation Xrotation Yrotation
                  JOINT RightFinger21
                  {
                    OFFSET -0.0117 -4.1944 -0.0248
                    CHANNELS 6 Xposition Yposition Zposition Zrotation Xrotation Yrotation
                    JOINT RightFinger22
                    {
                      OFFSET -0.0071 -2.3249 -0.0142
                      CHANNELS 6 Xposition Yposition Zposition Zrotation Xrotation Yrotation
                      End Site
                      {
                        OFFSET 0.1475 -2.0882 0.0028
                      }
                    }
                  }
                }
                JOINT RightFinger3
                {
                  OFFSET -0.6113 -8.7231 -2.0637
                  CHANNELS 6 Xposition Yposition Zposition Zrotation Xrotation Yrotation
                  JOINT RightFinger31
                  {
                    OFFSET 0.1927 -3.8059 -0.2383
                    CHANNELS 6 Xposition Yposition Zposition Zrotation Xrotation Yrotation
                    JOINT RightFinger32
                    {
                      OFFSET 0.1091 -2.1688 -0.1362
                      CHANNELS 6 Xposition Yposition Zposition Zrotation Xrotation Yrotation
                      End Site
                      {
                        OFFSET 0.2358 -1.9176 -0.0906
                      }
                    }
                  }
                }
                JOINT RightFinger4
                {
                  OFFSET 0.6151 -8.0947 -3.564
                  CHANNELS 6 Xposition Yposition Zposition Zrotation Xrotation Yrotation
                  JOINT RightFinger41
                  {
                    OFFSET 0.4882 -2.341 -0.6462
                    CHANNELS 6 Xposition Yposition Zposition Zrotation Xrotation Yrotation
                    JOINT RightFinger42
                    {
                      OFFSET 0.3574 -1.7166 -0.4742
                      CHANNELS 6 Xposition Yposition Zposition Zrotation Xrotation Yrotation
                      End Site
                      {
                        OFFSET 0.4187 -1.5237 -0.3496
                      }
                    }
                  }
                }
                JOINT RightFinger0
                {
                  OFFSET 1.4199 -1.8761 1.4221
                  CHANNELS 6 Xposition Yposition Zposition Zrotation Xrotation Yrotation
                  JOINT RightFinger01
                  {
                    OFFSET 1.1472 -3.4929 2.6336
                    CHANNELS 6 Xposition Yposition Zposition Zrotation Xrotation Yrotation
                    JOINT RightFinger02
                    {
                      OFFSET 0.8229 -2.3 1.6571
                      CHANNELS 6 Xposition Yposition Zposition Zrotation Xrotation Yrotation
                      End Site
                      {
                        OFFSET 0.5822 -1.6914 1.1582
                      }
                    }
                  }
                }
              }
            }
          }
        }
      }
    }
  }
  JOINT RightHip
  {
    OFFSET -9.412 3.9771 -0.7758
    CHANNELS 6 Xposition Yposition Zposition Zrotation Xrotation Yrotation
    JOINT RightKnee
    {
      OFFSET -0.7531 -40.938 0
      CHANNELS 6 Xposition Yposition Zposition Zrotation Xrotation Yrotation
      JOINT RightAnkle
      {
        OFFSET 0 -40.1986 0
        CHANNELS 6 Xposition Yposition Zposition Zrotation Xrotation Yrotation
        JOINT RightToe
        {
          OFFSET 0 -4.4182 9.239
          CHANNELS 6 Xposition Yposition Zposition Zrotation Xrotation Yrotation
          End Site
          {
            OFFSET 0 0 6.1981
          }
        }
      }
    }
  }
  JOINT LeftHip
  {
    OFFSET 9.4119 3.9773 -0.7758
    CHANNELS 6 Xposition Yposition Zposition Zrotation Xrotation Yrotation
    JOINT LeftKnee
    {
      OFFSET 0.7532 -40.9383 0
      CHANNELS 6 Xposition Yposition Zposition Zrotation Xrotation Yrotation
      JOINT LeftAnkle
      {
        OFFSET 0 -40.1986 0
        CHANNELS 6 Xposition Yposition Zposition Zrotation Xrotation Yrotation
        JOINT LeftToe
        {
          OFFSET 0 -4.4182 9.239
          CHANNELS 6 Xposition Yposition Zposition Zrotation Xrotation Yrotation
          End Site
          {
            OFFSET 0 0 6.1981
          }
        }
      }
    }
  }
}
MOTION
Frames:	4
Frame Time:	0.0333333
0.999468 16.1324 -0.845646 -7.96554e-015 7.70111 -180 0 8.7983 -4.7612 -0.574365 14.2621 -0.0407769 2.22045e-016 8.0291 0.4195 -1.19651 28.5241 0.0752939 -2.22045e-016 9.9351 -2.2114 -1.1965 28.524 0.0752918 4.44089e-016 22.3885 -0.4656 3.78186e-005 -0.14833 6.94682e-006 -0.0001 12.643 3.4389 20.315 -28.0597 12.7876 2.2603 21.606 7.4023 -10.8564 -10.5532 -28.8577 13.5163 -1.1332 -5.0146 31.5023 -55.1082 -24.1944 -0.0995 -28.05 -0.2431 10.9444 -1.89218 13.6263 0.0679 -23.3996 -0.1402 38.0374 -15.9717 -5.78292 0.7932 -9.069 2.5189 1.41166e-005 8.91748e-006 1.49258e-008 -0.8272 -3.3923 0.5977 -3.18055e-015 6.36111e-015 -7.95139e-015 -0.5649 -2.3158 0.4082 2.1166e-006 2.12557e-006 -9.63274e-006 0.9159 -9.2044 0.2193 1.41166e-005 8.91748e-006 1.49258e-008 0.0117 -4.1944 -0.0248 -0.0128341 0.00232392 8.06389e-005 0.0071 -2.3249 -0.0142 -5.28432e-006 6.20149e-006 2.49911e-006 0.6113 -8.7231 -2.0637 1.41166e-005 8.91748e-006 1.49258e-008 -0.1927 -3.8059 -0.2383 -0.0160903 0.00299406 0.00084809 -0.1091 -2.1688 -0.1362 -2.23698e-006 7.17042e-006 9.86333e-006 -0.6151 -8.0947 -3.5641 1.41166e-005 8.91748e-006 1.49258e-008 -0.4882 -2.341 -0.6462 -0.0126389 0.00314234 0.00284253 -0.3575 -1.7167 -0.4742 -1.15874e-006 3.51863e-006 -8.90412e-006 -1.42 -1.8761 1.4223 1.41166e-005 8.91748e-006 1.49258e-008 -1.1471 -3.4929 2.6334 -3.18055e-015 6.36111e-015 -7.95139e-015 -0.823 -2.3 1.6571 2.1166e-006 2.12557e-006 -9.63274e-006 -2.2603 21.606 7.4023 9.22369 -10.6607 22.0282 -13.5187 -1.1334 -5.0155 -24.3045 -57.8725 32.2785 0.0994 -28.0499 -0.2431 -10.4368 -1.77608 -13.8334 -0.0679 -23.3996 -0.1402 -32.9865 -14.3587 4.93532 -0.7932 -9.0691 2.5189 -3.18055e-015 0 -0 0.8272 -3.3923 0.5977 0 0 -3.18055e-015 0.565 -2.3158 0.4082 -3.18055e-015 0 -1.27222e-014 -0.916 -9.2044 0.2193 -3.18055e-015 0 -0 -0.0117 -4.1944 -0.0248 0.0129648 0.00232065 -9.21045e-005 -0.0071 -2.3249 -0.0142 -9.54166e-015 9.54166e-015 1.43125e-014 -0.6113 -8.7231 -2.0637 -3.18055e-015 0 -0 0.1927 -3.8059 -0.2383 0.0163231 0.00303676 -0.000871807 0.1091 -2.1688 -0.1362 4.80422e-006 -1.71847e-006 -5.23264e-006 0.6151 -8.0947 -3.564 -3.18055e-015 0 -0 0.4882 -2.341 -0.6462 0.0145426 0.00367092 -0.00325129 0.3574 -1.7166 -0.4742 -3.18055e-015 0 -7.95139e-015 1.4199 -1.8761 1.4221 -3.18055e-015 0 -0 1.1472 -3.4929 2.6336 0 0 -3.18055e-015 0.8229 -2.3 1.6571 -3.18055e-015 0 -1.27222e-014 -9.412 3.9771 -0.7758 -95.6209 -47.5376 -109.987 -0.7531 -40.938 0 -167.608 67.1092 166.849 7.10543e-015 -40.1986 -7.10542e-015 -2.02423 -17.4914 -1.22998 0 -4.4182 9.239 -1.65175e-006 3.01105e-006 1.41e-007 9.4119 3.9773 -0.7758 95.6451 -47.5983 109.967 0.7532 -40.9383 0 167.637 67.1127 -166.878 3.55271e-015 -40.1986 0 1.98116 -17.4854 1.25235 3.55271e-015 -4.4182 9.239 -0 -3.18055e-015 -0 
0.999467 16.5549 -0.901887 -8.03117e-015 8.22673 -180 0 8.7983 -4.7612 -0.57742 14.6011 -0.0336166 0 8.0291 0.4195 -1.20785 29.2018 0.0958707 2.22045e-016 9.9351 -2.2114 -1.20784 29.2017 0.0958689 0 22.3885 -0.4656 4.11309e-005 -0.147309 7.43708e-006 -0.0001 12.643 3.4389 20.1177 -27.8658 12.6384 2.2603 21.606 7.4023 -10.8772 -11.2623 -29.0078 13.5163 -1.1332 -5.0146 31.5024 -55.1081 -24.1943 -0.0995 -28.05 -0.2431 10.9444 -1.89233 13.6264 0.0679 -23.3996 -0.1402 38.3136 -16.2432 -5.63891 0.7932 -9.069 2.5189 3.04128e-006 1.63236e-006 7.36574e-006 -0.8272 -3.3923 0.5977 6.36111e-015 0 -1.59028e-015 -0.5649 -2.3158 0.4082 3.18055e-015 -3.18055e-015 4.77083e-015 0.9159 -9.2044 0.2193 3.04128e-006 1.63236e-006 7.36574e-006 0.0117 -4.1944 -0.0248 -0.0128326 0.00232595 8.58485e-005 0.0071 -2.3249 -0.0142 -6.36111e-015 0 6.36111e-015 0.6113 -8.7231 -2.0637 3.04128e-006 1.63236e-006 7.36574e-006 -0.1927 -3.8059 -0.2383 -0.0160525 0.00299608 0.000847792 -0.1091 -2.1688 -0.1362 -4.41391e-031 -3.18055e-015 -7.95139e-015 -0.6151 -8.0947 -3.5641 3.04128e-006 1.63236e-006 7.36574e-006 -0.4882 -2.341 -0.6462 -0.0126639 0.00314568 0.00284475 -0.3575 -1.7167 -0.4742 3.18055e-015 3.18055e-015 3.18055e-015 -1.42 -1.8761 1.4223 3.04128e-006 1.63236e-006 7.36574e-006 -1.1471 -3.4929 2.6334 6.36111e-015 0 -1.59028e-015 -0.823 -2.3 1.6571 3.18055e-015 -3.18055e-015 4.77083e-015 -2.2603 21.606 7.4023 9.18331 -11.3741 22.0789 -13.5187 -1.1334 -5.0155 -24.3045 -57.8725 32.2785 0.0994 -28.0499 -0.2431 -10.4368 -1.77604 -13.8334 -0.0679 -23.3996 -0.1402 -33.3086 -14.5749 4.73952 -0.7932 -9.0691 2.5189 -1.10943e-006 4.23043e-006 -1.20935e-005 0.8272 -3.3923 0.5977 -3.18055e-015 6.36111e-015 -1.59028e-015 0.565 -2.3158 0.4082 -1.15991e-005 9.01135e-006 6.07946e-006 -0.916 -9.2044 0.2193 -1.10943e-006 4.23043e-006 -1.20935e-005 -0.0117 -4.1944 -0.0248 0.0129495 0.00232326 -8.72084e-005 -0.0071 -2.3249 -0.0142 -4.60554e-006 1.30261e-005 -6.03601e-006 -0.6113 -8.7231 -2.0637 -1.10943e-006 4.23043e-006 -1.20935e-005 0.1927 -3.8059 -0.2383 0.0163044 0.00304676 -0.000868077 0.1091 -2.1688 -0.1362 -7.78319e-006 6.60711e-006 -1.06346e-005 0.6151 -8.0947 -3.564 -1.10943e-006 4.23043e-006 -1.20935e-005 0.4882 -2.341 -0.6462 0.0145622 0.00367716 -0.00324976 0.3574 -1.7166 -0.4742 -1.32405e-006 7.59099e-006 -7.06715e-006 1.4199 -1.8761 1.4221 -1.10943e-006 4.23043e-006 -1.20935e-005 1.1472 -3.4929 2.6336 -3.18055e-015 6.36111e-015 -1.59028e-015 0.8229 -2.3 1.6571 -1.15991e-005 9.01135e-006 6.07946e-006 -9.412 3.9771 -0.7758 -94.1529 -47.6687 -108.366 -0.7531 -40.938 3.55271e-015 -167.408 67.5576 166.689 -3.55271e-015 -40.1986 0 -1.88215 -17.6413 -1.12475 3.55271e-015 -4.4182 9.239 2.40422e-006 7.19865e-007 2.38992e-006 9.4119 3.9773 -0.7758 94.1766 -47.7331 108.342 0.7532 -40.9383 3.55271e-015 167.439 67.5614 -166.721 3.55271e-015 -40.1986 0 1.83619 -17.6348 1.14858 0 -4.4182 9.239 -1.59028e-015 1.59028e-015 -1.27222e-014 
0.999465 16.9779 -0.957732 -8.09698e-015 8.75233 -180 0 8.7983 -4.7612 -0.580537 14.9399 -0.0264063 0 8.0291 0.4195 -1.2196 29.8794 0.116779 4.44089e-016 9.9351 -2.2114 -1.21959 29.8792 0.116777 0 22.3885 -0.4656 4.36062e-005 -0.146272 7.6274e-006 -0.0001 12.643 3.4389 19.9213 -27.6715 12.4901 2.2603 21.606 7.4023 -10.8999 -11.9711 -29.1585 13.5163 -1.1332 -5.0146 31.5024 -55.1081 -24.1943 -0.0995 -28.05 -0.2431 10.9443 -1.89234 13.6264 0.0679 -23.3996 -0.1402 38.5909 -16.5139 -5.49335 0.7932 -9.06901 2.5189 1.27222e-014 6.36111e-015 3.18055e-015 -0.8272 -3.3923 0.5977 6.36111e-015 0 -1.59028e-015 -0.5649 -2.3158 0.4082 9.54166e-015 6.36111e-015 -1.59028e-015 0.9159 -9.20441 0.2193 1.27222e-014 6.36111e-015 3.18055e-015 0.0117 -4.1944 -0.0248 -0.0128039 0.00232664 8.20549e-005 0.0071 -2.3249 -0.0142 -3.52875e-006 2.45174e-006 8.81416e-006 0.6113 -8.72311 -2.0637 1.27222e-014 6.36111e-015 3.18055e-015 -0.1927 -3.8059 -0.2383 -0.0160471 0.00299981 0.00085872 -0.1091 -2.1688 -0.1362 6.36111e-015 0 -1.59028e-015 -0.6151 -8.0947 -3.5641 1.27222e-014 6.36111e-015 3.18055e-015 -0.4882 -2.341 -0.6462 -0.0125577 0.00312422 0.00282971 -0.3575 -1.7167 -0.4742 6.36111e-015 3.18055e-015 1.11319e-014 -1.42 -1.8761 1.4223 1.27222e-014 6.36111e-015 3.18055e-015 -1.1471 -3.4929 2.6334 6.36111e-015 0 -1.59028e-015 -0.823 -2.3 1.6571 9.54166e-015 6.36111e-015 -1.59028e-015 -2.2603 21.606 7.4023 9.14348 -12.0873 22.1292 -13.5187 -1.1334 -5.0155 -24.3045 -57.8725 32.2786 0.0994 -28.0499 -0.2431 -10.4368 -1.77606 -13.8334 -0.0679 -23.3996 -0.1402 -33.6318 -14.79 4.5423 -0.7932 -9.0691 2.5189 3.18055e-015 -3.18055e-015 6.36111e-015 0.8272 -3.3923 0.5977 6.36111e-015 3.18055e-015 4.77083e-015 0.565 -2.3158 0.4082 3.18055e-015 6.36111e-015 -0 -0.916 -9.2044 0.2193 3.18055e-015 -3.18055e-015 6.36111e-015 -0.0117 -4.1944 -0.0248 0.0129452 0.00232744 -8.05155e-005 -0.0071 -2.3249 -0.0142 3.18055e-015 9.54166e-015 -0 -0.6113 -8.7231 -2.0637 3.18055e-015 -3.18055e-015 6.36111e-015 0.1927 -3.8059 -0.2383 0.0163282 0.00304881 -0.000866846 0.1091 -2.1688 -0.1362 1.27222e-014 0 -9.54166e-015 0.6151 -8.0947 -3.564 3.18055e-015 -3.18055e-015 6.36111e-015 0.4882 -2.341 -0.6462 0.0145767 0.00367931 -0.00325703 0.3574 -1.7166 -0.4742 -3.18055e-015 6.36111e-015 -3.18055e-015 1.4199 -1.8761 1.4221 3.18055e-015 -3.18055e-015 6.36111e-015 1.1472 -3.4929 2.6336 6.36111e-015 3.18055e-015 4.77083e-015 0.8229 -2.3 1.6571 3.18055e-015 6.36111e-015 -0 -9.412 3.9771 -0.7758 -92.6768 -47.7724 -106.737 -0.7531 -40.938 7.10543e-015 -167.2 68.0054 166.522 3.55271e-015 -40.1986 0 -1.73967 -17.7914 -1.01911 -3.55271e-015 -4.4182 9.239 8.25924e-007 7.04587e-007 -7.03849e-008 9.4119 3.9773 -0.7758 92.6999 -47.8405 106.71 0.7532 -40.9383 3.55271e-015 167.235 68.0095 -166.557 0 -40.1986 0 1.69077 -17.7845 1.04441 0 -4.4182 9.239 -1.57813e-006 4.45148e-006 -2.4618e-006 
0.999463 17.4016 -1.01317 -8.16295e-015 9.27782 -180 0 8.7983 -4.7612 -0.58372 15.2785 -0.0191454 -2.22045e-016 8.0291 0.4195 -1.23177 30.5565 0.138031 4.44089e-016 9.9351 -2.2114 -1.23176 30.5564 0.138029 4.44089e-016 22.3885 -0.4656 4.54369e-005 -0.145261 7.20847e-006 -0.0001 12.643 3.4389 19.7257 -27.4767 12.3429 2.2603 21.606 7.4023 -10.9246 -12.6798 -29.3098 13.5163 -1.1332 -5.0146 31.5024 -55.1081 -24.1943 -0.0995 -28.05 -0.2431 10.9443 -1.89237 13.6264 0.0679 -23.3996 -0.1402 38.8693 -16.784 -5.34624 0.7932 -9.069 2.5189 8.93422e-006 -2.58748e-006 -1.15328e-005 -0.8272 -3.3923 0.5977 9.54166e-015 1.27222e-014 -3.49861e-014 -0.5649 -2.3158 0.4082 6.36111e-015 6.36111e-015 -2.38542e-014 0.9159 -9.2044 0.2193 8.93422e-006 -2.58748e-006 -1.15328e-005 0.0117 -4.1944 -0.0248 -0.0128519 0.00234023 9.72843e-005 0.0071 -2.3249 -0.0142 2.77131e-006 -9.79428e-006 1.6269e-006 0.6113 -8.7231 -2.0637 8.93422e-006 -2.58748e-006 -1.15328e-005 -0.1927 -3.8059 -0.2383 -0.0160307 0.00299594 0.000868858 -0.1091 -2.1688 -0.1362 6.1908e-007 5.17082e-006 -2.58118e-006 -0.6151 -8.0947 -3.5641 8.93422e-006 -2.58748e-006 -1.15328e-005 -0.4882 -2.341 -0.6462 -0.0125791 0.00311772 0.00282328 -0.3575 -1.7167 -0.4742 4.66849e-006 -1.3802e-006 9.28234e-008 -1.42 -1.8761 1.4223 8.93422e-006 -2.58748e-006 -1.15328e-005 -1.1471 -3.4929 2.6334 9.54166e-015 1.27222e-014 -3.49861e-014 -0.823 -2.3 1.6571 6.36111e-015 6.36111e-015 -2.38542e-014 -2.2603 21.606 7.4023 9.10419 -12.8004 22.1791 -13.5187 -1.1334 -5.0155 -24.3045 -57.8725 32.2785 0.0994 -28.0499 -0.2431 -10.4368 -1.7761 -13.8334 -0.0679 -23.3996 -0.1402 -33.956 -15.004 4.34366 -0.7932 -9.06911 2.5189 1.27222e-014 0 -3.18055e-015 0.8272 -3.3923 0.5977 6.36111e-015 0 1.59028e-015 0.565 -2.3158 0.4082 6.36111e-015 -3.18055e-015 -1.59028e-015 -0.916 -9.20441 0.2193 1.27222e-014 0 -3.18055e-015 -0.0117 -4.1944 -0.0248 0.0129316 0.00231517 -8.63364e-005 -0.0071 -2.3249 -0.0142 9.54166e-015 -3.18055e-015 -9.54166e-015 -0.6113 -8.72311 -2.0637 1.27222e-014 0 -3.18055e-015 0.1927 -3.8059 -0.2383 0.0163465 0.00303846 -0.000870626 0.1091 -2.1688 -0.1362 1.27222e-014 0 -4.77083e-015 0.6151 -8.09471 -3.564 1.27222e-014 0 -3.18055e-015 0.4882 -2.341 -0.6462 0.0145821 0.00368092 -0.00326324 0.3574 -1.7166 -0.4742 -9.54166e-015 0 -4.77083e-015 1.4199 -1.8761 1.4221 1.27222e-014 0 -3.18055e-015 1.1472 -3.4929 2.6336 6.36111e-015 0 1.59028e-015 0.8229 -2.3 1.6571 6.36111e-015 -3.18055e-015 -1.59028e-015 -9.412 3.9771 -0.7758 -91.1951 -47.8485 -105.104 -0.7531 -40.938 -3.55271e-015 -166.985 68.4526 166.347 -3.55271e-015 -40.1986 0 -1.59671 -17.9418 -0.913139 3.55271e-015 -4.4182 9.239 8.25951e-007 -8.8794e-007 -7.03547e-008 9.4119 3.9773 -0.7758 91.2172 -47.9203 105.072 0.7532 -40.9383 -7.10543e-015 167.022 68.4571 -166.384 0 -40.1986 7.10543e-015 1.54494 -17.9344 0.939911 0 -4.4182 9.239 -7.51833e-007 1.70449e-006 -2.53285e-006 
